PathFileType	4	(X/Y/Z)	D:\telocate\uwb06-Unnamed.trc
DataRate	CameraRate	NumFrames	NumMarkers	Units	OrigDataRate	OrigDataStartFrame	OrigNumFrames
100.00	100.00	     153	0	mm	100.00	6193	     16512
Frame#	Time	
		

6193	61.920	1849.61145	1716.79480	1115.47388	
6194	61.930	1840.43311	1715.75854	1115.10754	
6195	61.940	1833.04224	1715.63989	1114.83240	
6196	61.950	1821.41577	1714.82166	1114.78223	
6197	61.960	1809.98425	1713.73010	1115.19666	
6198	61.970	1803.49390	1713.54663	1114.65088	
6199	61.980	1793.25537	1712.38025	1115.16248	
6200	61.990	1785.86963	1711.76465	1116.68066	
6201	62.000	1776.29932	1711.30103	1116.77454	
6202	62.010	1766.09766	1710.47607	1117.45386	
6203	62.020	1756.61084	1709.74597	1118.58032	
6204	62.030	1749.09253	1709.72754	1119.53174	
6205	62.040	1740.33923	1708.85742	1120.49072	
6206	62.050	1730.50513	1708.79077	1121.66370	
6207	62.060	1720.99756	1708.14844	1122.54309	
6208	62.070	1711.44263	1706.76770	1123.63464	
6209	62.080	1703.35046	1707.05566	1123.95947	
6210	62.090	1693.19495	1706.29333	1125.30676	
6211	62.100	1682.40186	1705.47424	1125.81982	
6212	62.110	1673.72034	1705.30518	1127.02869	
6213	62.120	1665.43677	1705.43433	1127.44531	
6214	62.130	1655.64124	1704.97302	1128.19824	
6215	62.140	1644.96204	1704.27759	1129.46362	
6216	62.150	1636.13110	1704.55103	1129.49426	
6217	62.160	1626.37891	1703.75623	1129.96558	
6218	62.170	1617.91382	1704.73511	1131.05774	
6219	62.180	1607.85803	1704.34692	1131.89868	
6220	62.190	1597.06287	1703.87158	1132.72021	
6221	62.200	1587.65466	1704.02332	1133.03101	
6222	62.210	1578.59497	1704.54846	1133.15515	
6223	62.220	1569.21680	1704.72034	1133.63745	
6224	62.230	1556.18469	1704.28748	1134.58057	
6225	62.240	1549.05591	1704.70105	1134.73682	
6226	62.250	1538.90576	1704.88696	1134.92285	
6227	62.260	1529.60461	1705.36646	1134.20911	
6228	62.270	1517.97241	1705.42859	1135.11328	
6229	62.280	1508.30542	1705.80078	1135.05725	
6230	62.290	1496.79956	1705.85400	1135.25598	
6231	62.300	1488.65881	1706.99939	1134.48145	
6232	62.310	1477.25061	1707.53101	1134.01062	
6233	62.320	1466.85608	1707.31970	1134.19922	
6234	62.330	1456.08191	1707.36096	1133.89612	
6235	62.340	1447.03320	1708.00964	1133.31042	
6236	62.350	1437.29163	1708.99817	1132.33740	
6237	62.360	1425.05127	1708.94043	1132.18958	
6238	62.370	1413.93628	1709.79675	1131.36865	
6239	62.380	1404.56091	1710.44958	1130.58887	
6240	62.390	1394.70154	1711.50806	1130.50842	
6241	62.400	1382.53296	1712.06482	1130.63245	
6242	62.410	1371.54224	1712.74475	1130.60034	
6243	62.420	1362.77783	1714.28369	1129.51965	
6244	62.430	1352.71521	1714.91443	1128.96216	
6245	62.440	1341.31140	1715.60889	1128.98389	
6246	62.450	1331.89478	1716.41101	1128.84448	
6247	62.460	1323.76831	1717.78943	1128.07373	
6248	62.470	1313.45129	1718.37708	1127.98230	
6249	62.480	1303.42322	1719.47900	1127.69067	
6250	62.490	1294.41663	1720.40674	1127.53723	
6251	62.500	1284.47705	1720.86621	1127.03003	
6252	62.510	1275.79773	1722.53210	1127.36450	
6253	62.520	1266.80444	1723.63281	1127.39368	
6254	62.530	1257.23242	1724.39954	1127.43835	
6255	62.540	1247.95764	1725.32874	1128.47339	
6256	62.550	1239.75159	1726.67957	1129.31885	
6257	62.560	1231.98584	1729.10681	1129.15247	
6258	62.570	1223.53113	1730.83057	1130.02576	
6259	62.580	1212.82312	1731.79553	1130.05212	
6260	62.590	1204.27295	1733.36230	1130.89343	
6261	62.600	1195.28796	1734.64880	1130.98889	
6262	62.610	1186.79456	1736.65491	1131.22058	
6263	62.620	1176.27063	1737.75647	1130.90308	
6264	62.630	1166.81421	1739.25378	1130.82642	
6265	62.640	1157.32788	1740.60022	1130.50562	
6266	62.650	1148.16077	1741.96399	1130.28064	
6267	62.660	1138.94861	1743.14258	1129.82910	
6268	62.670	1127.04565	1744.26184	1130.26782	
6269	62.680	1120.26746	1746.16479	1129.94653	
6270	62.690	1110.03528	1747.70850	1130.26624	
6271	62.700	1103.20215	1748.88550	1130.42200	
6272	62.710	1092.37256	1750.18420	1131.02258	
6273	62.720	1083.40356	1751.64685	1131.47546	
6274	62.730	1077.60620	1753.31958	1131.55896	
6275	62.740	1067.19141	1755.07678	1133.03809	
6276	62.750	1060.43457	1757.13550	1132.80005	
6277	62.760	1050.97815	1758.27087	1133.61133	
6278	62.770	1041.90942	1759.16028	1134.87476	
6279	62.780	1034.81812	1760.09985	1134.40173	
6280	62.790	1023.48944	1760.67944	1135.78076	
6281	62.800	1016.75256	1762.54578	1135.87720	
6282	62.810	1005.03345	1763.07043	1136.89453	
6283	62.820	996.09399	1764.24402	1136.80908	
6284	62.830	989.45557	1765.46533	1136.71863	
6285	62.840	979.86523	1766.14233	1137.10315	
6286	62.850	971.21393	1767.72327	1136.64160	
6287	62.860	960.72540	1767.96497	1136.81653	
6288	62.870	952.00781	1770.43665	1137.66528	
6289	62.880	941.31750	1771.12842	1137.99280	
6290	62.890	933.41028	1772.10522	1137.86951	
6291	62.900	923.13757	1772.96375	1137.77844	
6292	62.910	910.93420	1773.65283	1136.50964	
6293	62.920	901.50757	1773.18542	1135.88025	
6294	62.930	892.85114	1774.40149	1135.74268	
6295	62.940	882.28308	1774.29614	1135.13220	
6296	62.950	869.56897	1775.09644	1134.65979	
6297	62.960	861.31256	1774.83496	1134.72351	
6298	62.970	852.69702	1774.70190	1133.61218	
6299	62.980	841.92944	1774.94409	1133.22644	
6300	62.990	828.49756	1774.83057	1132.40784	
6301	63.000	819.65436	1774.45337	1132.71631	
6302	63.010	810.90198	1774.51465	1132.00171	
6303	63.020	800.22058	1774.35034	1131.63989	
6304	63.030	787.81458	1773.76709	1132.13623	
6305	63.040	777.81506	1773.43054	1131.62427	
6306	63.050	768.82202	1773.85413	1130.99963	
6307	63.060	755.84796	1772.73547	1130.39783	
6308	63.070	746.02966	1772.89063	1130.97131	
6309	63.080	736.07141	1772.57190	1130.96875	
6310	63.090	727.88922	1772.17249	1131.27185	
6311	63.100	715.47705	1770.92419	1131.57227	
6312	63.110	705.80560	1770.63965	1132.07764	
6313	63.120	697.81647	1769.99438	1133.34631	
6314	63.130	689.57410	1769.55957	1134.39551	
6315	63.140	679.73657	1769.05237	1135.02246	
6316	63.150	666.84290	1768.29102	1136.37634	
6317	63.160	660.48309	1768.06396	1138.02844	
6318	63.170	650.28296	1766.73352	1139.03760	
6319	63.180	642.20471	1765.83289	1140.31750	
6320	63.190	629.73499	1765.33130	1141.90173	
6321	63.200	618.78925	1764.78760	1142.02246	
6322	63.210	608.28461	1764.24780	1143.28381	
6323	63.220	598.54291	1762.66101	1143.56299	
6324	63.230	585.74438	1762.72900	1144.63660	
6325	63.240	578.49237	1761.04260	1145.77576	
6326	63.250	568.05042	1761.13440	1146.45337	
6327	63.260	559.30670	1760.01257	1147.24072	
6328	63.270	549.51080	1759.36426	1148.19519	
6329	63.280	541.18030	1757.66846	1149.22400	
6330	63.290	531.92047	1757.78821	1150.65149	
6331	63.300	523.33374	1757.88672	1151.63391	
6332	63.310	510.12671	1757.19824	1152.46558	
6333	63.320	500.50854	1755.63379	1153.08118	
6334	63.330	489.19421	1755.17786	1153.10474	
6335	63.340	481.95590	1753.53308	1153.82715	
6336	63.350	470.23569	1753.18140	1155.25830	
6337	63.360	460.29593	1751.49866	1155.49097	
6338	63.370	451.43771	1750.99878	1156.10913	
6339	63.380	442.42404	1750.08801	1156.51563	
6340	63.390	429.28787	1749.77283	1155.85559	
6341	63.400	419.40439	1748.76660	1156.29797	
6342	63.410	408.92041	1748.44250	1156.05786	
6343	63.420	400.79062	1747.71741	1155.37024	
6344	63.430	387.61435	1747.34729	1155.20313	
6345	63.440	377.88821	1746.52295	1154.28857	
